<svg width="24" height="24" viewBox="0 0 24 24" fill="none" xmlns="http://www.w3.org/2000/svg">
<g clip-path="url(#clip0_3103_19174)">
<path d="M22.7652 12.1864C22.7652 11.4581 22.7007 10.7667 22.59 10.0938H12.1729V14.2514H18.1374C17.87 15.6158 17.0864 16.7681 15.9249 17.5517V20.3173H19.4833C21.5668 18.3906 22.7652 15.5513 22.7652 12.1864Z" fill="#80858B"/>
<path d="M12.1731 23C15.16 23 17.6582 22.0044 19.4836 20.3173L15.9251 17.5517C14.9295 18.2155 13.6665 18.6211 12.1731 18.6211C9.28762 18.6211 6.84465 16.6759 5.96887 14.0486H2.2998V16.8972C4.1159 20.5109 7.84949 23 12.1731 23Z" fill="#80858B"/>
<path d="M5.96863 14.0486C5.73816 13.3848 5.61832 12.675 5.61832 11.9375C5.61832 11.2 5.74738 10.4901 5.96863 9.82638V6.97778H2.29957C1.54363 8.47122 1.11035 10.149 1.11035 11.9375C1.11035 13.7259 1.54363 15.4037 2.29957 16.8972L5.96863 14.0486Z" fill="#80858B"/>
<path d="M12.1731 5.25391C13.8048 5.25391 15.2614 5.81625 16.4137 6.91328L19.5665 3.76047C17.6582 1.97203 15.16 0.875 12.1731 0.875C7.84949 0.875 4.1159 3.36406 2.2998 6.97781L5.96887 9.82641C6.84465 7.19906 9.28762 5.25391 12.1731 5.25391Z" fill="#80858B"/>
</g>
<defs>
<clipPath id="clip0_3103_19174">
<rect width="22.125" height="22.125" fill="white" transform="translate(0.875 0.875)"/>
</clipPath>
</defs>
</svg>
