<svg width="370" height="218" viewBox="0 0 370 218" fill="none" xmlns="http://www.w3.org/2000/svg">
<rect y="0.5" width="370" height="217" rx="8" fill="#2A303F"/>
<path fill-rule="evenodd" clip-rule="evenodd" d="M148 79.3742C148.014 77.3524 149.649 75.7163 151.67 75.7002H218.328C220.356 75.7002 221.999 77.3466 221.999 79.3742V138.625C221.985 140.647 220.35 142.283 218.328 142.299H151.67C149.643 142.297 148 140.653 148 138.625V79.3742ZM214.599 83.1002H155.4V134.899L189.78 100.512C191.225 99.0677 193.567 99.0677 195.012 100.512L214.599 120.136V83.1002ZM162.799 97.8996C162.799 101.986 166.112 105.3 170.199 105.3C174.286 105.3 177.599 101.986 177.599 97.8996C177.599 93.8128 174.286 90.4998 170.199 90.4998C166.112 90.4998 162.799 93.8128 162.799 97.8996Z" fill="#585E6F"/>
</svg>
